<svg id="Layer_1" data-name="Layer 1" xmlns="http://www.w3.org/2000/svg" viewBox="0 0 720.18 766.67"><defs><style>.cls-1{font-size:150px;}.cls-1,.cls-2,.cls-3,.cls-4{fill:#8c6382;}.cls-1,.cls-2{font-family:Montserrat-Regular, Montserrat;}.cls-2{font-size:100px;}.cls-3{fill-rule:evenodd;}</style></defs><title>bn-logo-dark</title><text class="cls-1" transform="translate(192.71 176.26) rotate(-24.65)">B</text><text class="cls-1" transform="translate(287.89 131.64) rotate(-3.77)">A</text><text class="cls-1" transform="matrix(0.98, 0.18, -0.18, 0.98, 389.09, 128.03)">I</text><text class="cls-1" transform="translate(429.12 130.58) rotate(25.1)">R</text><text class="cls-2" transform="matrix(0.24, 0.97, -0.97, 0.24, 25.62, 446.34)">N</text><text class="cls-2" transform="translate(62.53 562.33) rotate(56.54)">E</text><text class="cls-2" transform="matrix(0.78, 0.62, -0.62, 0.78, 124.31, 645.86)">C</text><text class="cls-2" transform="translate(214.15 708.85) rotate(20.04)">E</text><text class="cls-2" transform="translate(311.67 738.4) rotate(3.01)">S</text><text class="cls-2" transform="translate(406.38 738.75) rotate(-13.12)">S</text><text class="cls-2" transform="translate(489.54 714.91) rotate(-25.33)">I</text><text class="cls-2" transform="matrix(0.8, -0.6, 0.6, 0.8, 538, 690.8)">T</text><text class="cls-2" transform="matrix(0.66, -0.75, 0.75, 0.66, 600.41, 639.25)">I</text><text class="cls-2" transform="translate(637.36 596.26) rotate(-61.2)">E</text><text class="cls-2" transform="translate(681.48 504.26) rotate(-78.29)">S</text><path class="cls-3" d="M479.46,338.45c13,23.12,24.55,47.22,27.47,77-12.08-5.41-26.42-2.1-34.1,4.16-6.7-20.54-2-53.86,6.63-81.19" transform="translate(-145.81 -199.01)"/><path class="cls-3" d="M573.35,373.53c30.09,14.2,47.84,45.45,51.37,80.65-8.45-5.85-23.13-7.24-32.18-5.3,1.94-30.64-8.09-53.35-19.19-75.35" transform="translate(-145.81 -199.01)"/><path class="cls-3" d="M403.13,374.68c-3.75,19.77-9.74,58.78-1.43,79.78-12.69-.09-20.53,7.14-30.57,11-4.24-34,12.35-74.07,32-90.82" transform="translate(-145.81 -199.01)"/><path class="cls-3" d="M501.32,552.3c-50.23-1.64-65.61-94.08-26.86-122.48,16.74-12.27,39.62-3.51,51.57,12.94,21.68,29.83,18.63,101.35-24.71,109.54" transform="translate(-145.81 -199.01)"/><path class="cls-3" d="M599.86,455.29c63.88.82,42.62,134.12-14.12,130.17a25.38,25.38,0,0,1-3.55-.72c-52.56-11.68-35.82-130.13,17.67-129.45" transform="translate(-145.81 -199.01)"/><path class="cls-3" d="M660.19,467.54c24.77,21.48,41,48.62,40.22,87A71.37,71.37,0,0,0,669,545.7c6.81-32.5-3.64-53.56-8.76-78.16" transform="translate(-145.81 -199.01)"/><path class="cls-3" d="M396.93,465.81c2.46,0,11.77.81,16.57,3.37,21.36,11.37,36.88,53.88,30.76,85.08-4.7,23.91-20.05,44.27-46.51,34.9-38.62-13.68-51.35-98.69-16.21-120.32,3.95-2.43,9.83-3.12,15.39-3" transform="translate(-145.81 -199.01)"/><path class="cls-4" d="M329.32,465.63c1.42.09,2.06.69,2.13,1.66-7.14,21.57-8.78,54.83-3.31,76.93-11.34.92-21.82,3.12-28.2,11.52-9.25-31.09,10.94-73,29.38-90.11" transform="translate(-145.81 -199.01)"/><path class="cls-3" d="M671.06,553.52a32.74,32.74,0,0,1,17.5,4.78c37.75,23,20.58,116.92-25.43,113.09a22.32,22.32,0,0,1-3.55-.72c-46.58-11.75-38-115.9,11.48-117.15" transform="translate(-145.81 -199.01)"/><path class="cls-3" d="M521.85,572.48c22.34,3,45.78,12.52,59.82,26.93,24.8,25.48,19.17,57.55,51.37,80.65,16.34,11.73,36.65,11.92,52.48,26.67,7.56,7,15.8,24.16,14.8,36.27-1.77,21.59-23.84,46.6-38,53.86-6,3-16.51,5.85-23.45,6.32-25.2,1.73-48.22-13-80.21-17.52-46.5-6.54-89.51,26.52-140.7,25.62-32.62-.57-69.32-25.36-84.36-51.62-7-12.18-11.76-31.08-8.39-43.59,9.27-34.47,66.44-38.45,84.71-65.32,9-13.2,13.62-43,21.94-53.44,5.31-6.68,15.58-11.35,26.56-15.55,19.17-7.32,36.88-12.9,63.47-9.28" transform="translate(-145.81 -199.01)"/><path class="cls-3" d="M318.54,554.59c40.27-.2,72.54,52.69,57.25,94.16-6.58,17.86-25,27.61-47.87,17.38-39.53-17.65-59.23-101.35-9.38-111.54" transform="translate(-145.81 -199.01)"/></svg>